<svg xmlns="http://www.w3.org/2000/svg" viewBox="0 0 781.44 781.44"><rect width="781.44" height="781.44" fill="#ffffff" id="bg" class="bg"/><g><g transform="translate(78.14,&#xA;                                0.00) rotate(270, 39.072, 39.072)"><svg id="Layer_1" data-name="Layer 1" xmlns="http://www.w3.org/2000/svg" viewBox="0 0 100 100" width="78.144" height="78.144"><path d="M50,100a50,50,0,1,1,50-50v50Z" fill="#0056b3"/></svg></g><g transform="translate(0.00,&#xA;                                78.14) rotate(0, 39.072, 39.072)"><svg id="Layer_1" data-name="Layer 1" xmlns="http://www.w3.org/2000/svg" viewBox="0 0 100 100" width="78.144" height="78.144"><path d="M100,100A50,50,0,0,0,0,100Z" fill="#ff474d"/></svg></g><g transform="translate(234.43,&#xA;                                0.00) rotate(90, 39.072, 39.072)"><svg id="Layer_1" data-name="Layer 1" xmlns="http://www.w3.org/2000/svg" viewBox="0 0 100 100" width="78.144" height="78.144"><path d="M50,100a50,50,0,1,1,50-50v50Z" fill="#0056b3"/></svg></g><g transform="translate(312.58,&#xA;                                0.00) rotate(90, 39.072, 39.072)"><svg id="Layer_1" data-name="Layer 1" xmlns="http://www.w3.org/2000/svg" viewBox="0 0 100 100" width="78.144" height="78.144"><path d="M100,100A50,50,0,0,0,0,100Z" fill="#ff474d"/></svg></g><g transform="translate(390.72,&#xA;                                0.00) rotate(180, 39.072, 39.072)"><svg id="Layer_1" data-name="Layer 1" xmlns="http://www.w3.org/2000/svg" viewBox="0 0 100 100" width="78.144" height="78.144"><path d="M50,100h0A50,50,0,0,1,0,50V0H100V50A50,50,0,0,1,50,100Z" fill="#ff474d"/></svg></g><g transform="translate(312.58,&#xA;                                78.14) rotate(180, 39.072, 39.072)"><svg id="Layer_1" data-name="Layer 1" xmlns="http://www.w3.org/2000/svg" viewBox="0 0 100 100" width="78.144" height="78.144"><path d="M100,100A50,50,0,0,0,0,100Z" fill="#ff474d"/></svg></g><g transform="translate(390.72,&#xA;                                78.14) rotate(90, 39.072, 39.072)"><svg id="Layer_1" data-name="Layer 1" xmlns="http://www.w3.org/2000/svg" viewBox="0 0 100 100" width="78.144" height="78.144"><circle cx="50" cy="50" r="50" fill="#0056B3"/></svg></g><g transform="translate(468.86,&#xA;                                0.00) rotate(90, 39.072, 39.072)"><svg id="Layer_1" data-name="Layer 1" xmlns="http://www.w3.org/2000/svg" viewBox="0 0 100 100" width="78.144" height="78.144"><path d="M100,100A50,50,0,0,0,0,100Z" fill="#ff474d"/></svg></g><g transform="translate(547.01,&#xA;                                0.00) rotate(0, 39.072, 39.072)"><svg id="Layer_1" data-name="Layer 1" xmlns="http://www.w3.org/2000/svg" viewBox="0 0 100 100" width="78.144" height="78.144"><path d="M50,100h0A50,50,0,0,1,0,50V0H100V50A50,50,0,0,1,50,100Z" fill="#ff474d"/></svg></g><g transform="translate(468.86,&#xA;                                78.14) rotate(90, 39.072, 39.072)"><svg id="Layer_1" data-name="Layer 1" xmlns="http://www.w3.org/2000/svg" viewBox="0 0 100 100" width="78.144" height="78.144"><path d="M100,100A50,50,0,0,0,0,100Z" fill="#ff474d"/></svg></g><g transform="translate(703.30,&#xA;                                0.00) rotate(180, 39.072, 39.072)"><svg id="Layer_1" data-name="Layer 1" xmlns="http://www.w3.org/2000/svg" viewBox="0 0 100 100" width="78.144" height="78.144"><path d="M50,100h0A50,50,0,0,1,0,50V0H100V50A50,50,0,0,1,50,100Z" fill="#ff474d"/></svg></g><g transform="translate(625.15,&#xA;                                78.14) rotate(0, 39.072, 39.072)"><svg id="Layer_1" data-name="Layer 1" xmlns="http://www.w3.org/2000/svg" viewBox="0 0 100 100" width="78.144" height="78.144"><circle cx="50" cy="50" r="50" fill="#0056B3"/></svg></g></g><g><g transform="translate(78.14,&#xA;                                156.29) rotate(180, 39.072, 39.072)"><svg id="Layer_1" data-name="Layer 1" xmlns="http://www.w3.org/2000/svg" viewBox="0 0 100 100" width="78.144" height="78.144"><path d="M50,100h0A50,50,0,0,1,0,50V0H100V50A50,50,0,0,1,50,100Z" fill="#ff474d"/></svg></g><g transform="translate(0.00,&#xA;                                234.43) rotate(180, 39.072, 39.072)"><svg id="Layer_1" data-name="Layer 1" xmlns="http://www.w3.org/2000/svg" viewBox="0 0 100 100" width="78.144" height="78.144"><circle cx="50" cy="50" r="50" fill="#0056B3"/></svg></g><g transform="translate(78.14,&#xA;                                234.43) rotate(90, 39.072, 39.072)"><svg id="Layer_1" data-name="Layer 1" xmlns="http://www.w3.org/2000/svg" viewBox="0 0 100 100" width="78.144" height="78.144"><circle cx="50" cy="50" r="50" fill="#0056B3"/></svg></g><g transform="translate(390.72,&#xA;                                156.29) rotate(270, 39.072, 39.072)"><svg id="Layer_1" data-name="Layer 1" xmlns="http://www.w3.org/2000/svg" viewBox="0 0 100 100" width="78.144" height="78.144"><path d="M50,100h0A50,50,0,0,1,0,50V0H100V50A50,50,0,0,1,50,100Z" fill="#ff474d"/></svg></g><g transform="translate(312.58,&#xA;                                234.43) rotate(90, 39.072, 39.072)"><svg id="Layer_1" data-name="Layer 1" xmlns="http://www.w3.org/2000/svg" viewBox="0 0 100 100" width="78.144" height="78.144"><circle cx="50" cy="50" r="50" fill="#0056B3"/></svg></g><g transform="translate(547.01,&#xA;                                156.29) rotate(180, 39.072, 39.072)"><svg id="Layer_1" data-name="Layer 1" xmlns="http://www.w3.org/2000/svg" viewBox="0 0 100 100" width="78.144" height="78.144"><path d="M50,100a50,50,0,1,1,50-50v50Z" fill="#0056b3"/></svg></g><g transform="translate(468.86,&#xA;                                234.43) rotate(270, 39.072, 39.072)"><svg id="Layer_1" data-name="Layer 1" xmlns="http://www.w3.org/2000/svg" viewBox="0 0 100 100" width="78.144" height="78.144"><path d="M50,100a50,50,0,1,1,50-50v50Z" fill="#0056b3"/></svg></g><g transform="translate(547.01,&#xA;                                234.43) rotate(0, 39.072, 39.072)"><svg id="Layer_1" data-name="Layer 1" xmlns="http://www.w3.org/2000/svg" viewBox="0 0 100 100" width="78.144" height="78.144"><circle cx="50" cy="50" r="50" fill="#0056B3"/></svg></g><g transform="translate(625.15,&#xA;                                156.29) rotate(90, 39.072, 39.072)"><svg id="Layer_1" data-name="Layer 1" xmlns="http://www.w3.org/2000/svg" viewBox="0 0 100 100" width="78.144" height="78.144"><path d="M100,100A50,50,0,0,0,0,100Z" fill="#ff474d"/></svg></g><g transform="translate(703.30,&#xA;                                156.29) rotate(270, 39.072, 39.072)"><svg id="Layer_1" data-name="Layer 1" xmlns="http://www.w3.org/2000/svg" viewBox="0 0 100 100" width="78.144" height="78.144"><path d="M50,100a50,50,0,1,1,50-50v50Z" fill="#0056b3"/></svg></g><g transform="translate(625.15,&#xA;                                234.43) rotate(270, 39.072, 39.072)"><svg id="Layer_1" data-name="Layer 1" xmlns="http://www.w3.org/2000/svg" viewBox="0 0 100 100" width="78.144" height="78.144"><path d="M100,100A50,50,0,0,0,0,100Z" fill="#ff474d"/></svg></g></g><g><g transform="translate(0.00,&#xA;                                390.72) rotate(180, 39.072, 39.072)"><svg id="Layer_1" data-name="Layer 1" xmlns="http://www.w3.org/2000/svg" viewBox="0 0 100 100" width="78.144" height="78.144"><path d="M100,100A50,50,0,0,0,0,100Z" fill="#ff474d"/></svg></g><g transform="translate(234.43,&#xA;                                312.58) rotate(0, 39.072, 39.072)"><svg id="Layer_1" data-name="Layer 1" xmlns="http://www.w3.org/2000/svg" viewBox="0 0 100 100" width="78.144" height="78.144"><path d="M50,100h0A50,50,0,0,1,0,50V0H100V50A50,50,0,0,1,50,100Z" fill="#ff474d"/></svg></g><g transform="translate(156.29,&#xA;                                390.72) rotate(0, 39.072, 39.072)"><svg id="Layer_1" data-name="Layer 1" xmlns="http://www.w3.org/2000/svg" viewBox="0 0 100 100" width="78.144" height="78.144"><circle cx="50" cy="50" r="50" fill="#0056B3"/></svg></g><g transform="translate(234.43,&#xA;                                390.72) rotate(270, 39.072, 39.072)"><svg id="Layer_1" data-name="Layer 1" xmlns="http://www.w3.org/2000/svg" viewBox="0 0 100 100" width="78.144" height="78.144"><circle cx="50" cy="50" r="50" fill="#0056B3"/></svg></g><g transform="translate(390.72,&#xA;                                312.58) rotate(90, 39.072, 39.072)"><svg id="Layer_1" data-name="Layer 1" xmlns="http://www.w3.org/2000/svg" viewBox="0 0 100 100" width="78.144" height="78.144"><path d="M50,100h0A50,50,0,0,1,0,50V0H100V50A50,50,0,0,1,50,100Z" fill="#ff474d"/></svg></g><g transform="translate(547.01,&#xA;                                312.58) rotate(180, 39.072, 39.072)"><svg id="Layer_1" data-name="Layer 1" xmlns="http://www.w3.org/2000/svg" viewBox="0 0 100 100" width="78.144" height="78.144"><path d="M50,100h0A50,50,0,0,1,0,50V0H100V50A50,50,0,0,1,50,100Z" fill="#ff474d"/></svg></g><g transform="translate(468.86,&#xA;                                390.72) rotate(90, 39.072, 39.072)"><svg id="Layer_1" data-name="Layer 1" xmlns="http://www.w3.org/2000/svg" viewBox="0 0 100 100" width="78.144" height="78.144"><circle cx="50" cy="50" r="50" fill="#0056B3"/></svg></g><g transform="translate(703.30,&#xA;                                312.58) rotate(90, 39.072, 39.072)"><svg id="Layer_1" data-name="Layer 1" xmlns="http://www.w3.org/2000/svg" viewBox="0 0 100 100" width="78.144" height="78.144"><path d="M50,100a50,50,0,1,1,50-50v50Z" fill="#0056b3"/></svg></g><g transform="translate(625.15,&#xA;                                390.72) rotate(180, 39.072, 39.072)"><svg id="Layer_1" data-name="Layer 1" xmlns="http://www.w3.org/2000/svg" viewBox="0 0 100 100" width="78.144" height="78.144"><path d="M100,100A50,50,0,0,0,0,100Z" fill="#ff474d"/></svg></g><g transform="translate(703.30,&#xA;                                390.72) rotate(0, 39.072, 39.072)"><svg id="Layer_1" data-name="Layer 1" xmlns="http://www.w3.org/2000/svg" viewBox="0 0 100 100" width="78.144" height="78.144"><circle cx="50" cy="50" r="50" fill="#0056B3"/></svg></g></g><g><g transform="translate(0.00,&#xA;                                547.01) rotate(180, 39.072, 39.072)"><svg id="Layer_1" data-name="Layer 1" xmlns="http://www.w3.org/2000/svg" viewBox="0 0 100 100" width="78.144" height="78.144"><path d="M100,100A50,50,0,0,0,0,100Z" fill="#ff474d"/></svg></g><g transform="translate(78.14,&#xA;                                547.01) rotate(270, 39.072, 39.072)"><svg id="Layer_1" data-name="Layer 1" xmlns="http://www.w3.org/2000/svg" viewBox="0 0 100 100" width="78.144" height="78.144"><circle cx="50" cy="50" r="50" fill="#0056B3"/></svg></g><g transform="translate(156.29,&#xA;                                468.86) rotate(270, 39.072, 39.072)"><svg id="Layer_1" data-name="Layer 1" xmlns="http://www.w3.org/2000/svg" viewBox="0 0 100 100" width="78.144" height="78.144"><path d="M50,100h0A50,50,0,0,1,0,50V0H100V50A50,50,0,0,1,50,100Z" fill="#ff474d"/></svg></g><g transform="translate(234.43,&#xA;                                468.86) rotate(270, 39.072, 39.072)"><svg id="Layer_1" data-name="Layer 1" xmlns="http://www.w3.org/2000/svg" viewBox="0 0 100 100" width="78.144" height="78.144"><path d="M50,100a50,50,0,1,1,50-50v50Z" fill="#0056b3"/></svg></g><g transform="translate(156.29,&#xA;                                547.01) rotate(270, 39.072, 39.072)"><svg id="Layer_1" data-name="Layer 1" xmlns="http://www.w3.org/2000/svg" viewBox="0 0 100 100" width="78.144" height="78.144"><circle cx="50" cy="50" r="50" fill="#0056B3"/></svg></g><g transform="translate(234.43,&#xA;                                547.01) rotate(270, 39.072, 39.072)"><svg id="Layer_1" data-name="Layer 1" xmlns="http://www.w3.org/2000/svg" viewBox="0 0 100 100" width="78.144" height="78.144"><circle cx="50" cy="50" r="50" fill="#0056B3"/></svg></g><g transform="translate(312.58,&#xA;                                468.86) rotate(270, 39.072, 39.072)"><svg id="Layer_1" data-name="Layer 1" xmlns="http://www.w3.org/2000/svg" viewBox="0 0 100 100" width="78.144" height="78.144"><path d="M100,100A50,50,0,0,0,0,100Z" fill="#ff474d"/></svg></g><g transform="translate(390.72,&#xA;                                468.86) rotate(90, 39.072, 39.072)"><svg id="Layer_1" data-name="Layer 1" xmlns="http://www.w3.org/2000/svg" viewBox="0 0 100 100" width="78.144" height="78.144"><path d="M50,100h0A50,50,0,0,1,0,50V0H100V50A50,50,0,0,1,50,100Z" fill="#ff474d"/></svg></g><g transform="translate(312.58,&#xA;                                547.01) rotate(90, 39.072, 39.072)"><svg id="Layer_1" data-name="Layer 1" xmlns="http://www.w3.org/2000/svg" viewBox="0 0 100 100" width="78.144" height="78.144"><path d="M100,100A50,50,0,0,0,0,100Z" fill="#ff474d"/></svg></g><g transform="translate(547.01,&#xA;                                468.86) rotate(270, 39.072, 39.072)"><svg id="Layer_1" data-name="Layer 1" xmlns="http://www.w3.org/2000/svg" viewBox="0 0 100 100" width="78.144" height="78.144"><path d="M50,100a50,50,0,1,1,50-50v50Z" fill="#0056b3"/></svg></g><g transform="translate(625.15,&#xA;                                547.01) rotate(0, 39.072, 39.072)"><svg id="Layer_1" data-name="Layer 1" xmlns="http://www.w3.org/2000/svg" viewBox="0 0 100 100" width="78.144" height="78.144"><path d="M100,100A50,50,0,0,0,0,100Z" fill="#ff474d"/></svg></g></g><g><g transform="translate(78.14,&#xA;                                625.15) rotate(0, 39.072, 39.072)"><svg id="Layer_1" data-name="Layer 1" xmlns="http://www.w3.org/2000/svg" viewBox="0 0 100 100" width="78.144" height="78.144"><path d="M50,100h0A50,50,0,0,1,0,50V0H100V50A50,50,0,0,1,50,100Z" fill="#ff474d"/></svg></g><g transform="translate(0.00,&#xA;                                703.30) rotate(180, 39.072, 39.072)"><svg id="Layer_1" data-name="Layer 1" xmlns="http://www.w3.org/2000/svg" viewBox="0 0 100 100" width="78.144" height="78.144"><path d="M100,100A50,50,0,0,0,0,100Z" fill="#ff474d"/></svg></g><g transform="translate(78.14,&#xA;                                703.30) rotate(270, 39.072, 39.072)"><svg id="Layer_1" data-name="Layer 1" xmlns="http://www.w3.org/2000/svg" viewBox="0 0 100 100" width="78.144" height="78.144"><path d="M50,100a50,50,0,1,1,50-50v50Z" fill="#0056b3"/></svg></g><g transform="translate(156.29,&#xA;                                625.15) rotate(270, 39.072, 39.072)"><svg id="Layer_1" data-name="Layer 1" xmlns="http://www.w3.org/2000/svg" viewBox="0 0 100 100" width="78.144" height="78.144"><path d="M50,100h0A50,50,0,0,1,0,50V0H100V50A50,50,0,0,1,50,100Z" fill="#ff474d"/></svg></g><g transform="translate(234.43,&#xA;                                625.15) rotate(270, 39.072, 39.072)"><svg id="Layer_1" data-name="Layer 1" xmlns="http://www.w3.org/2000/svg" viewBox="0 0 100 100" width="78.144" height="78.144"><path d="M50,100a50,50,0,1,1,50-50v50Z" fill="#0056b3"/></svg></g><g transform="translate(156.29,&#xA;                                703.30) rotate(270, 39.072, 39.072)"><svg id="Layer_1" data-name="Layer 1" xmlns="http://www.w3.org/2000/svg" viewBox="0 0 100 100" width="78.144" height="78.144"><circle cx="50" cy="50" r="50" fill="#0056B3"/></svg></g><g transform="translate(234.43,&#xA;                                703.30) rotate(90, 39.072, 39.072)"><svg id="Layer_1" data-name="Layer 1" xmlns="http://www.w3.org/2000/svg" viewBox="0 0 100 100" width="78.144" height="78.144"><circle cx="50" cy="50" r="50" fill="#0056B3"/></svg></g><g transform="translate(390.72,&#xA;                                625.15) rotate(180, 39.072, 39.072)"><svg id="Layer_1" data-name="Layer 1" xmlns="http://www.w3.org/2000/svg" viewBox="0 0 100 100" width="78.144" height="78.144"><path d="M50,100a50,50,0,1,1,50-50v50Z" fill="#0056b3"/></svg></g><g transform="translate(312.58,&#xA;                                703.30) rotate(270, 39.072, 39.072)"><svg id="Layer_1" data-name="Layer 1" xmlns="http://www.w3.org/2000/svg" viewBox="0 0 100 100" width="78.144" height="78.144"><path d="M100,100A50,50,0,0,0,0,100Z" fill="#ff474d"/></svg></g><g transform="translate(547.01,&#xA;                                625.15) rotate(180, 39.072, 39.072)"><svg id="Layer_1" data-name="Layer 1" xmlns="http://www.w3.org/2000/svg" viewBox="0 0 100 100" width="78.144" height="78.144"><path d="M50,100h0A50,50,0,0,1,0,50V0H100V50A50,50,0,0,1,50,100Z" fill="#ff474d"/></svg></g><g transform="translate(468.86,&#xA;                                703.30) rotate(0, 39.072, 39.072)"><svg id="Layer_1" data-name="Layer 1" xmlns="http://www.w3.org/2000/svg" viewBox="0 0 100 100" width="78.144" height="78.144"><path d="M100,100A50,50,0,0,0,0,100Z" fill="#ff474d"/></svg></g><g transform="translate(547.01,&#xA;                                703.30) rotate(90, 39.072, 39.072)"><svg id="Layer_1" data-name="Layer 1" xmlns="http://www.w3.org/2000/svg" viewBox="0 0 100 100" width="78.144" height="78.144"><circle cx="50" cy="50" r="50" fill="#0056B3"/></svg></g><g transform="translate(703.30,&#xA;                                625.15) rotate(270, 39.072, 39.072)"><svg id="Layer_1" data-name="Layer 1" xmlns="http://www.w3.org/2000/svg" viewBox="0 0 100 100" width="78.144" height="78.144"><path d="M50,100h0A50,50,0,0,1,0,50V0H100V50A50,50,0,0,1,50,100Z" fill="#ff474d"/></svg></g><g transform="translate(625.15,&#xA;                                703.30) rotate(90, 39.072, 39.072)"><svg id="Layer_1" data-name="Layer 1" xmlns="http://www.w3.org/2000/svg" viewBox="0 0 100 100" width="78.144" height="78.144"><path d="M100,100A50,50,0,0,0,0,100Z" fill="#ff474d"/></svg></g></g></svg>