<svg id="visual" viewBox="0 0 900 600" width="900" height="600" xmlns="http://www.w3.org/2000/svg" xmlns:xlink="http://www.w3.org/1999/xlink" version="1.1"><path d="M0 425L21.5 424C43 423 86 421 128.8 424.2C171.7 427.3 214.3 435.7 257.2 427.8C300 420 343 396 385.8 391C428.7 386 471.3 400 514.2 396.3C557 392.7 600 371.3 642.8 369.8C685.7 368.3 728.3 386.7 771.2 394.8C814 403 857 401 878.5 400L900 399L900 601L878.5 601C857 601 814 601 771.2 601C728.3 601 685.7 601 642.8 601C600 601 557 601 514.2 601C471.3 601 428.7 601 385.8 601C343 601 300 601 257.2 601C214.3 601 171.7 601 128.8 601C86 601 43 601 21.5 601L0 601Z" fill="#ff8785"></path><path d="M0 431L21.5 428.2C43 425.3 86 419.7 128.8 415.8C171.7 412 214.3 410 257.2 413.3C300 416.7 343 425.3 385.8 433.3C428.7 441.3 471.3 448.7 514.2 443.8C557 439 600 422 642.8 421.2C685.7 420.3 728.3 435.7 771.2 446.5C814 457.3 857 463.7 878.5 466.8L900 470L900 601L878.5 601C857 601 814 601 771.2 601C728.3 601 685.7 601 642.8 601C600 601 557 601 514.2 601C471.3 601 428.7 601 385.8 601C343 601 300 601 257.2 601C214.3 601 171.7 601 128.8 601C86 601 43 601 21.5 601L0 601Z" fill="#ff6a69"></path><path d="M0 460L21.5 463.5C43 467 86 474 128.8 471.3C171.7 468.7 214.3 456.3 257.2 458.3C300 460.3 343 476.7 385.8 479.3C428.7 482 471.3 471 514.2 464.7C557 458.3 600 456.7 642.8 454.8C685.7 453 728.3 451 771.2 450.8C814 450.7 857 452.3 878.5 453.2L900 454L900 601L878.5 601C857 601 814 601 771.2 601C728.3 601 685.7 601 642.8 601C600 601 557 601 514.2 601C471.3 601 428.7 601 385.8 601C343 601 300 601 257.2 601C214.3 601 171.7 601 128.8 601C86 601 43 601 21.5 601L0 601Z" fill="#ff474d"></path><path d="M0 541L21.5 540.7C43 540.3 86 539.7 128.8 533.3C171.7 527 214.3 515 257.2 510.2C300 505.3 343 507.7 385.8 512C428.7 516.3 471.3 522.7 514.2 522.3C557 522 600 515 642.8 513.3C685.7 511.7 728.3 515.3 771.2 513.5C814 511.7 857 504.3 878.5 500.7L900 497L900 601L878.5 601C857 601 814 601 771.2 601C728.3 601 685.7 601 642.8 601C600 601 557 601 514.2 601C471.3 601 428.7 601 385.8 601C343 601 300 601 257.2 601C214.3 601 171.7 601 128.8 601C86 601 43 601 21.5 601L0 601Z" fill="#e03a40"></path><path d="M0 545L21.5 549.7C43 554.3 86 563.7 128.8 565.7C171.7 567.7 214.3 562.3 257.2 558C300 553.7 343 550.3 385.8 551.2C428.7 552 471.3 557 514.2 558.8C557 560.7 600 559.3 642.8 554.2C685.7 549 728.3 540 771.2 540.3C814 540.7 857 550.3 878.5 555.2L900 560L900 601L878.5 601C857 601 814 601 771.2 601C728.3 601 685.7 601 642.8 601C600 601 557 601 514.2 601C471.3 601 428.7 601 385.8 601C343 601 300 601 257.2 601C214.3 601 171.7 601 128.8 601C86 601 43 601 21.5 601L0 601Z" fill="#c12e34"></path></svg>